
<svg xmlns="http://www.w3.org/2000/svg" aria-hidden="true" style="position:absolute;width:0;height:0;overflow:hidden">
  <defs>
    <symbol id="icon-logo" viewBox="0 0 32 32">
      <path d="M29.08.31h-4c-1.24 0-2.25.99-2.25 2.2v3.93c0 1.21 1 2.2 2.24 2.2h4.01c1.24 0 2.24-.99 2.24-2.2V2.5c0-1.21-1-2.2-2.24-2.2zM6.73 23.04H2.41c-1.33 0-2.41.98-2.41 2.2v3.92c0 1.22 1.08 2.2 2.41 2.2h4.32c1.33 0 2.41-.98 2.41-2.2v-3.93c0-1.2-1.08-2.19-2.41-2.19zM6.25 11.58h-4C1 11.58 0 12.57 0 13.78v3.93c0 1.2 1 2.2 2.24 2.2h4.01c1.24 0 2.24-1 2.24-2.2v-3.93c0-1.22-1-2.2-2.24-2.2zM17.77 22.98h-4.01c-1.24 0-2.24.98-2.24 2.2v3.92c0 1.21 1 2.2 2.24 2.2h4c1.24 0 2.25-.99 2.25-2.2v-3.93c0-1.2-1-2.2-2.24-2.2zM6.25.09h-4C1 .09 0 1.07 0 2.29V6.2c0 1.21 1 2.2 2.24 2.2h4.01c1.24 0 2.24-.99 2.24-2.2V2.28c0-1.21-1-2.2-2.24-2.2zM18.08 11.7h-4.01c-1.24 0-2.24.98-2.24 2.2v3.92c0 1.21 1 2.2 2.24 2.2h4c1.24 0 2.25-.99 2.25-2.2V13.9c0-1.21-1-2.2-2.24-2.2zM29.33 22.98h-4c-1.24 0-2.25.98-2.25 2.2v3.92c0 1.21 1 2.2 2.24 2.2h4.01c1.24 0 2.24-.99 2.24-2.2v-3.93c0-1.2-1-2.2-2.24-2.2zM17.6.22h-4.02c-1.23 0-2.24.99-2.24 2.2v3.93c0 1.21 1 2.2 2.24 2.2h4.01c1.24 0 2.24-1 2.24-2.2V2.42c0-1.21-1-2.2-2.24-2.2zM29.04 11.93h-4c-1.24 0-2.24.98-2.24 2.2v3.92c0 1.21 1 2.2 2.24 2.2h4c1.24 0 2.24-.99 2.24-2.2v-3.93c0-1.21-1-2.2-2.24-2.2z"/>
    </symbol>
    <symbol id="icon-menu" viewBox="0 0 32 32">
      <path stroke-linecap="round" stroke-linejoin="round" stroke-width="3.2" d="M5.33 8h21.34M5.33 16H16M5.33 24h21.34"/>
    </symbol>
    <symbol id="icon-close" viewBox="0 0 32 32">
      <path stroke-linecap="round" stroke-linejoin="round" stroke-width="3.2" d="M24 8 8 24M8 8l16 16"/>
    </symbol>
    
  </defs>
</svg>

